HIERARCHY
ROOT Hips
{
	OFFSET -0.001795 -0.223333 0.028219
	CHANNELS 6 Xposition Yposition Zposition Zrotation Yrotation Xrotation 
	JOINT LeftUpLeg
	{
		OFFSET 0.069520 -0.091406 -0.006815
		CHANNELS 3 Zrotation Yrotation Xrotation
		JOINT LeftLeg
		{
			OFFSET 0.034277 -0.375199 -0.004496
			CHANNELS 3 Zrotation Yrotation Xrotation
			JOINT LeftFoot
			{
				OFFSET -0.013596 -0.397961 -0.043693
				CHANNELS 3 Zrotation Yrotation Xrotation
				JOINT LeftToe
				{
					OFFSET 0.026358 -0.055791 0.119288
					CHANNELS 3 Zrotation Yrotation Xrotation
					End Site
					{
						OFFSET 0.000000 0.000000 0.000000
					}
				}
			}
		}
	}
	JOINT RightUpLeg
	{
		OFFSET -0.067670 -0.090522 -0.004320
		CHANNELS 3 Zrotation Yrotation Xrotation
		JOINT RightLeg
		{
			OFFSET -0.038290 -0.382569 -0.008850
			CHANNELS 3 Zrotation Yrotation Xrotation
			JOINT RightFoot
			{
				OFFSET 0.015774 -0.398415 -0.042312
				CHANNELS 3 Zrotation Yrotation Xrotation
				JOINT RightToe
				{
					OFFSET -0.025372 -0.048144 0.123348
					CHANNELS 3 Zrotation Yrotation Xrotation
					End Site
					{
						OFFSET 0.000000 0.000000 0.000000
					}
				}
			}
		}
	}
	JOINT Spine
	{
		OFFSET -0.002533 0.108963 -0.026696
		CHANNELS 3 Zrotation Yrotation Xrotation
		JOINT Spine1
		{
			OFFSET 0.005487 0.135180 0.001092
			CHANNELS 3 Zrotation Yrotation Xrotation
			JOINT Spine2
			{
				OFFSET 0.001457 0.052922 0.025425
				CHANNELS 3 Zrotation Yrotation Xrotation
				JOINT Neck
				{
					OFFSET -0.002778 0.213870 -0.042857
					CHANNELS 3 Zrotation Yrotation Xrotation
					JOINT Head
					{
						OFFSET 0.005152 0.064970 0.051349
						CHANNELS 3 Zrotation Yrotation Xrotation
						End Site
						{
							OFFSET 0.000000 0.000000 0.000000
						}
					}
				}
				JOINT LeftShoulder
				{
					OFFSET 0.078845 0.121749 -0.034090
					CHANNELS 3 Zrotation Yrotation Xrotation
					JOINT LeftArm
					{
						OFFSET 0.090977 0.030469 -0.008868
						CHANNELS 3 Zrotation Yrotation Xrotation
						JOINT LeftForeArm
						{
							OFFSET 0.259612 -0.012772 -0.027456
							CHANNELS 3 Zrotation Yrotation Xrotation
							JOINT LeftHand
							{
								OFFSET 0.249234 0.008986 -0.001171
								CHANNELS 3 Zrotation Yrotation Xrotation
								End Site
								{
									OFFSET 0.000000 0.000000 0.000000
								}
							}
						}
					}
				}
				JOINT RightShoulder
				{
					OFFSET -0.081759 0.118833 -0.038615
					CHANNELS 3 Zrotation Yrotation Xrotation
					JOINT RightArm
					{
						OFFSET -0.096012 0.032551 -0.009143
						CHANNELS 3 Zrotation Yrotation Xrotation
						JOINT RightForeArm
						{
							OFFSET -0.253742 -0.013329 -0.021401
							CHANNELS 3 Zrotation Yrotation Xrotation
							JOINT RightHand
							{
								OFFSET -0.255298 0.007772 -0.005559
								CHANNELS 3 Zrotation Yrotation Xrotation
								End Site
								{
									OFFSET 0.000000 0.000000 0.000000
								}
							}
						}
					}
				}
			}
		}
	}
}
MOTION
Frames: 6
Frame Time: 0.050000
0.000000 0.960874 0.000000 -1.824179 9.861400 -1.048824 4.150591 0.153849 7.652274 -2.329371 0.263325 -8.317135 2.907670 11.569760 17.039070 0.000000 0.000000 0.000000 1.116274 -0.462385 3.767873 1.085695 -0.184359 -1.666294 -0.205916 -4.468104 14.119916 0.000000 0.000000 0.000000 -0.628302 -0.254149 6.615955 4.936358 -0.330501 -25.389331 -2.297476 -4.737909 28.706456 0.881670 1.037634 -23.049199 0.000000 0.000000 0.000000 -32.139165 -0.209991 -2.825750 -47.913960 -2.592676 -6.871994 -13.515579 -22.784155 3.809099 0.000000 0.000000 0.000000 22.850004 2.799038 1.091501 53.690090 3.541971 -6.548640 8.938549 27.117309 3.408751 0.000000 0.000000 0.000000 
0.000378 0.960068 0.000528 -2.020605 9.890961 -0.408222 4.056794 0.143830 7.237420 -1.841521 0.256282 -8.826761 2.979023 11.642814 16.909167 0.000000 0.000000 0.000000 0.716766 -0.349820 2.961464 1.910931 -0.268675 -1.177134 0.158319 -3.607844 13.444156 0.000000 0.000000 0.000000 -0.106702 -0.239977 5.674978 4.659969 -0.265045 -25.321502 -2.791413 -4.934517 28.988989 1.490363 0.656112 -23.459230 0.000000 0.000000 0.000000 -31.744006 0.705775 -3.354035 -48.209838 -2.530456 -6.975518 -13.855808 -23.014433 3.934447 0.000000 0.000000 0.000000 22.709228 2.876627 1.103203 54.911324 3.182755 -6.824508 7.991918 28.194107 3.364167 0.000000 0.000000 0.000000 
0.000703 0.959590 0.000926 -1.840601 9.230884 -0.221652 3.812056 0.176106 7.060797 -1.906488 0.263868 -8.592567 3.347653 12.069122 16.888124 0.000000 0.000000 0.000000 0.715136 -0.347982 2.955984 1.451167 -0.217561 -1.408151 0.380717 -3.177546 13.026093 0.000000 0.000000 0.000000 0.007556 -0.245472 5.682935 4.737018 -0.271212 -25.736865 -2.883254 -4.805765 29.423020 0.549473 1.215479 -23.794703 0.000000 0.000000 0.000000 -31.887473 0.580111 -3.104502 -47.903737 -2.396459 -7.073939 -13.676442 -23.166288 3.945925 0.000000 0.000000 0.000000 22.255472 3.178342 1.183088 55.240894 3.389092 -6.761320 7.953829 28.139257 3.325638 0.000000 0.000000 0.000000 
0.001047 0.959762 0.001447 -2.090285 9.356066 -0.366722 3.770803 0.189769 7.436245 -1.362114 0.257626 -9.017948 3.285616 12.009416 16.940849 0.000000 0.000000 0.000000 0.819336 -0.334601 2.813205 1.795873 -0.250289 -1.053126 0.240010 -3.534912 13.444434 0.000000 0.000000 0.000000 0.301278 -0.276531 5.943762 5.117762 -0.333369 -26.329314 -3.296964 -4.885916 29.920320 1.039829 0.885630 -23.543440 0.000000 0.000000 0.000000 -32.528916 1.008917 -3.488262 -47.533760 -1.829647 -7.254801 -14.453341 -23.326424 4.143884 0.000000 0.000000 0.000000 21.947465 3.514086 1.411443 55.039064 3.535378 -6.727993 8.764606 28.595839 3.592469 0.000000 0.000000 0.000000 
0.001472 0.959856 0.002159 -2.074245 9.281901 -0.398562 3.608174 0.211024 7.519051 -1.152489 0.256064 -8.990666 3.325680 12.061178 16.961662 0.000000 0.000000 0.000000 0.779088 -0.338526 2.857466 1.668270 -0.232979 -0.971149 0.436318 -3.170578 13.439022 0.000000 0.000000 0.000000 0.495489 -0.318172 6.492643 5.681924 -0.494705 -25.812746 -3.817274 -4.495776 28.960279 1.252339 0.747011 -22.484887 0.000000 0.000000 0.000000 -32.349781 0.842770 -3.537143 -47.215972 -0.946761 -7.383569 -15.780236 -24.339368 4.599050 0.000000 0.000000 0.000000 21.896416 3.091807 1.214918 54.697238 3.503186 -6.603275 9.369041 29.143935 3.829184 0.000000 0.000000 0.000000 
0.002067 0.959796 0.003182 -2.037198 9.215522 -0.534320 3.544889 0.231493 7.840922 -1.141079 0.256632 -8.979307 3.239695 11.854816 16.613790 0.000000 0.000000 0.000000 0.672210 -0.382095 3.252530 1.713859 -0.238488 -0.984183 0.510471 -2.884217 12.845616 0.000000 0.000000 0.000000 0.343475 -0.313001 6.587118 5.806382 -0.518472 -25.952010 -3.888840 -4.617894 29.419781 1.301421 0.676508 -22.446403 0.000000 0.000000 0.000000 -32.482045 0.948054 -3.532584 -46.910555 -0.745924 -7.474220 -16.644588 -25.048889 4.952891 0.000000 0.000000 0.000000 21.657388 3.278328 1.291400 54.657054 3.382489 -6.691729 9.522028 29.792614 3.967634 0.000000 0.000000 0.000000 
